Poster:

Info:

Format : AVI
Format/Info : Audio Video Interleave
File size : 699 MiB
Duration : 1h 33mn
Overall bit rate mode : Variable
Overall bit rate : 1 042 Kbps
Writing application : VirtualDubMod 1.5.10.2 (build 2540/release)
Writing library : VirtualDubMod build 2540/release

Video
ID : 0
Format : MPEG-4 Visual
Format profile : Advanced Simple@L5
Format settings, BVOP : 2
Format settings, QPel : No
Format settings, GMC : No warppoints
Format settings, Matrix : Default (H.263)
Codec ID : XVID
Codec ID/Hint : XviD
Duration : 1h 33mn
Bit rate : 890 Kbps
Width : 624 pixels
Height : 256 pixels
Display aspect ratio : 2.40:1
Frame rate : 25.000 fps
Color space : YUV
Chroma subsampling : 4:2:0
Bit depth : 8 bits
Scan type : Progressive
Compression mode : Lossy
Bits/(Pixel*Frame) : 0.223
Stream size : 597 MiB (85%)
Writing library : XviD 1.2.1 (UTC 2008-12-04)

Audio
ID : 1
Format : MPEG Audio
Format version : Version 1
Format profile : Layer 3
Mode : Joint stereo
Codec ID : 55
Codec ID/Hint : MP3
Duration : 1h 33mn
Bit rate mode : Variable
Bit rate : 144 Kbps
Channel(s) : 2 channels
Sampling rate : 48.0 KHz
Compression mode : Lossy
Stream size : 93.5 MiB (13%)
Alignment : Aligned on interleaves
Interleave, duration : 24 ms (0.60 video frame)
Interleave, preload duration : 132 ms
Writing library : LAME3.98
Encoding settings : -m j -V 4 -q 3 -lowpass 17.5 --abr 144

SCREENS: 
http://imgh.us/devil.seed.2012.dvdrip.xvid-unveil-009.jpg 
http://imgh.us/devil.seed.2012.dvdrip.xvid-unveil-010.jpg 
http://imgh.us/devil.seed.2012.dvdrip.xvid-unveil-012.jpg 
http://imgh.us/devil.seed.2012.dvdrip.xvid-unveil-013.jpg 
http://imgh.us/devil.seed.2012.dvdrip.xvid-unveil-014.jpg 
http://imgh.us/devil.seed.2012.dvdrip.xvid-unveil-016.jpg 
http://imgh.us/devil.seed.2012.dvdrip.xvid-unveil-017.jpg 
http://imgh.us/devil.seed.2012.dvdrip.xvid-unveil-019.jpg
